<svg width="205" height="41" viewBox="0 0 205 41" fill="none" xmlns="http://www.w3.org/2000/svg">
<g clip-path="url(#clip0_150_576)">
<path d="M0 19.4917C0 12.2353 5.31269 8.08251 10.8486 8.08251C13.691 8.08251 16.2357 9.20631 17.8429 11.1116V2.73145H22.9324V30.4096H17.8801V27.5666C16.2729 29.6207 13.6538 30.8562 10.7742 30.8562C5.49871 30.8562 0 26.6661 0 19.4842V19.4917ZM18.1405 19.4172C18.1405 15.6737 15.3726 12.6819 11.5927 12.6819C7.81278 12.6819 4.97042 15.6365 4.97042 19.4172C4.97042 23.198 7.84999 26.227 11.5927 26.227C15.3354 26.227 18.1405 23.198 18.1405 19.4172Z" fill="#0A0A0A"/>
<path d="M25.0977 19.5289C25.0977 13.1284 30.0681 8.08252 36.4671 8.08252C42.8662 8.08252 47.725 12.868 47.725 19.3428V21.2481H29.9267C30.6336 24.3515 33.0667 26.4131 36.6606 26.4131C39.5029 26.4131 41.6756 24.9172 42.7173 22.5579L46.8693 24.9544C44.9644 28.5044 41.5938 30.8636 36.6606 30.8636C29.7779 30.8636 25.1051 25.8475 25.1051 19.5289H25.0977ZM30.1871 17.0208H42.6057C41.8617 14.0662 39.6146 12.5331 36.4746 12.5331C33.3346 12.5331 31.0875 14.3267 30.1946 17.0208H30.1871Z" fill="#0A0A0A"/>
<path d="M48.4766 25.5496L53.1494 23.302C54.1985 25.3561 56.0289 26.4799 58.4248 26.4799C60.8208 26.4799 62.1675 25.2817 62.1675 23.823C62.1675 22.2154 59.7344 21.9177 57.0409 21.3149C53.2982 20.526 49.3769 19.3352 49.3769 14.7284C49.3769 11.2156 52.7773 8.03027 57.9784 8.03027C62.428 8.03027 65.2331 9.74946 66.9147 12.5552L62.614 14.7284C61.7137 13.1953 60.0692 12.2203 57.9784 12.2203C55.5825 12.2203 54.4664 13.3441 54.4664 14.5796C54.4664 16.0383 56.1852 16.4104 59.4814 17.1248C63.0753 17.8319 67.1826 19.1045 67.1826 23.7113C67.1826 26.7776 64.4518 30.856 58.2091 30.856C53.313 30.856 50.24 28.988 48.484 25.5422L48.4766 25.5496Z" fill="#0A0A0A"/>
<path d="M71.885 0C73.8642 0 75.0622 1.27264 75.0622 3.17789C75.0622 5.08314 73.8642 6.31857 71.885 6.31857C69.9057 6.31857 68.7078 5.08314 68.7078 3.17789C68.7078 1.27264 69.9429 0 71.885 0ZM69.3402 8.52895H74.4223V30.4095H69.3402V8.52895Z" fill="#0A0A0A"/>
<path d="M94.5496 27.4923C92.9424 29.5911 90.3605 30.8563 87.4065 30.8563C82.131 30.8563 76.6323 26.6662 76.6323 19.4843C76.6323 12.3025 81.945 8.0752 87.4809 8.0752C90.3605 8.0752 92.9052 9.34784 94.5124 11.3275V8.52174H99.5647V29.8441C99.5647 35.9766 95.636 40.9928 88.2697 40.9928C82.5849 40.9928 79.0357 38.3359 77.049 34.7114L81.5358 31.9801C83.143 34.9347 84.8618 36.3562 88.3441 36.3562C92.1612 36.3562 94.5496 33.3644 94.5496 30.0302V27.4849V27.4923ZM94.7729 19.4099C94.7729 15.6664 92.0049 12.6746 88.225 12.6746C84.4451 12.6746 81.6027 15.6292 81.6027 19.4099C81.6027 23.1906 84.4823 26.2197 88.225 26.2197C91.9677 26.2197 94.7729 23.1906 94.7729 19.4099Z" fill="#0A0A0A"/>
<path d="M102.705 8.52906H107.72V11.2232C109.178 9.31795 111.425 8.08252 114.268 8.08252C119.766 8.08252 122.943 11.4837 122.943 17.4376V30.4171H117.817V17.9585C117.817 14.5574 116.172 12.4586 112.884 12.4586C110.004 12.4586 107.757 14.5499 107.757 18.4051V30.4096H102.705V8.52906Z" fill="#0A0A0A"/>
<path d="M126.612 19.4917C126.612 13.2103 131.471 8.08252 137.907 8.08252C141.501 8.08252 145.348 10.0622 147.066 13.5824V8.52906H149.157V30.4096H147.066V25.3935C145.348 28.9063 141.493 30.8562 137.907 30.8562C131.478 30.8562 126.612 25.7284 126.612 19.4842V19.4917ZM147.29 19.4917C147.29 14.2895 143.212 10.0622 137.974 10.0622C132.736 10.0622 128.777 14.2522 128.777 19.4917C128.777 24.7311 132.855 28.8839 137.974 28.8839C143.093 28.8839 147.29 24.7311 147.29 19.4917Z" fill="#0A0A0A"/>
<path d="M154.552 19.4917C154.552 13.2103 159.411 8.08251 165.847 8.08251C169.441 8.08251 173.176 10.025 174.969 13.4708V2.73145H177.06V30.4096H175.006V25.3935C173.288 28.9062 169.433 30.8562 165.847 30.8562C159.418 30.8562 154.552 25.7284 154.552 19.4842V19.4917ZM175.23 19.4917C175.23 14.2894 171.152 10.0622 165.914 10.0622C160.675 10.0622 156.717 14.2522 156.717 19.4917C156.717 24.7311 160.795 28.8839 165.914 28.8839C171.033 28.8839 175.23 24.7311 175.23 19.4917Z" fill="#0A0A0A"/>
<path d="M182.492 19.5661C182.492 13.0912 187.351 8.08252 193.861 8.08252C200.372 8.08252 205.007 12.7563 205.007 19.2312V20.2061H184.553C184.85 25.2223 188.482 28.9211 193.98 28.9211C198.281 28.9211 201.123 26.7182 202.582 23.0863L204.487 23.9869C202.545 28.4374 199.211 30.871 193.98 30.871C186.912 30.871 182.499 25.9368 182.499 19.5735L182.492 19.5661ZM184.62 18.219H202.835C202.425 13.3964 198.869 10.025 193.861 10.025C188.854 10.025 185.222 13.5378 184.62 18.219Z" fill="#0A0A0A"/>
</g>
<defs>
<clipPath id="clip0_150_576">
<rect width="205" height="41" fill="white"/>
</clipPath>
</defs>
</svg>
